<svg width="48" height="24" viewBox="0 0 48 24" fill="none" xmlns="http://www.w3.org/2000/svg">
<path d="M0.304 24V0.159998H8.08C10.5973 0.159998 12.784 0.671998 14.64 1.696C16.5173 2.69867 17.968 4.096 18.992 5.888C20.016 7.65867 20.528 9.71733 20.528 12.064C20.528 14.3893 20.016 16.4587 18.992 18.272C17.968 20.064 16.5173 21.472 14.64 22.496C12.784 23.4987 10.5973 24 8.08 24H0.304ZM4.656 20.16H8.176C9.79733 20.16 11.1947 19.8293 12.368 19.168C13.5627 18.4853 14.4907 17.5467 15.152 16.352C15.8133 15.136 16.144 13.7067 16.144 12.064C16.144 10.4 15.8133 8.97067 15.152 7.776C14.4907 6.58133 13.5627 5.65333 12.368 4.992C11.1947 4.33067 9.79733 4 8.176 4H4.656V20.16ZM23.0315 24V0.159998H27.1915L36.1195 12.288H34.1355L42.8715 0.159998H47.0315V24H42.6475V5.12L44.3435 5.536L35.2875 17.6H34.7755L25.9435 5.536L27.3835 5.12V24H23.0315Z" fill="#3563E9"/>
</svg>
